<?xml version="1.0" encoding="utf-8"?>
<!-- Generator: Adobe Illustrator 22.0.1, SVG Export Plug-In . SVG Version: 6.00 Build 0)  -->
<svg version="1.1" id="Capa_1" xmlns="http://www.w3.org/2000/svg" xmlns:xlink="http://www.w3.org/1999/xlink" x="0px" y="0px"
	 viewBox="0 0 100 100" style="enable-background:new 0 0 100 100;" xml:space="preserve">
<style type="text/css">
	.st0{font-family:'FranklinGothic-DemiCond';}
	.st1{font-size:12px;}
	.st2{font-family:'FranklinGothic-Heavy';}
	.st3{font-size:36.5911px;}
	.st4{fill:#1976D2;}
</style>
<g>
	<text transform="matrix(0.545 -0.545 0.7071 0.7071 27.6715 44.076)" class="st0 st1">Nicolas</text>
	<text transform="matrix(0.2058 0.2058 -0.7071 0.7071 29.7498 45.9532)" class="st2 st3">CARDENAS</text>
	<rect x="15.4" y="22.9" transform="matrix(0.7071 -0.7071 0.7071 0.7071 -9.7784 27.2446)" width="25.2" height="5"/>
	<path class="st4" d="M34.2,13.9L16.4,31.7l-5.3-5.3c-1.5-1.5-1.5-3.9,0-5.3L23.6,8.5c1.5-1.5,3.9-1.5,5.3,0L34.2,13.9z"/>
	<path d="M71.7,84.4l13.6-13.6c0.6-0.6,1.7-0.2,1.7,0.7v10.3c0,0.3-0.1,0.5-0.3,0.7l-3.3,3.3c-0.2,0.2-0.4,0.3-0.7,0.3H72.4
		C71.5,86.1,71.1,85,71.7,84.4z"/>
	<path class="st4" d="M84.9,86.2l2.3-2.3c0.3-0.3,0.9-0.1,0.9,0.4v2.3c0,0.3-0.2,0.5-0.5,0.5h-2.3C84.8,87.1,84.5,86.5,84.9,86.2z"
		/>
</g>
</svg>
